<svg width="23" height="24" viewBox="0 0 23 24" fill="none" xmlns="http://www.w3.org/2000/svg">
<g filter="url(#filter0_d_1_544)">
<path fill-rule="evenodd" clip-rule="evenodd" d="M10.1531 19.1553C10.3611 19.2169 10.5065 19.2631 10.9577 19.4098C11.3995 19.5534 11.6117 19.6196 11.8006 19.6696C11.8792 19.69 11.9873 19.7935 12.0958 19.9721C12.1852 20.1191 12.262 20.294 12.3223 20.469C12.3432 20.5295 12.3567 20.5739 12.3625 20.5954C12.4277 20.8362 12.6941 20.9601 12.9204 20.8549C13.1239 20.7603 13.2812 20.6883 13.6979 20.4984C13.8021 20.4508 13.8021 20.4508 13.9067 20.4031C15.039 19.8862 15.61 19.607 15.997 19.3587C16.4106 19.0933 16.6101 18.3455 16.6834 17.4916C17.2971 17.9232 18.0326 18.2795 18.5333 18.1324C18.6923 18.0855 18.8745 18.0075 19.0793 17.9039C19.232 17.8266 19.3906 17.7384 19.5484 17.6449C19.6675 17.5744 19.7612 17.5159 19.8167 17.48C20.0219 17.3473 20.0622 17.0638 19.9023 16.8791C19.8677 16.8392 19.8072 16.7646 19.7361 16.6683C19.6537 16.5566 19.5792 16.4447 19.5192 16.3389C19.4811 16.2719 19.4501 16.2096 19.4273 16.1538C19.3876 16.0565 19.364 16.0027 19.3082 15.879C19.2874 15.8329 19.2874 15.8329 19.2697 15.7924C19.2125 15.6594 19.1709 15.5271 19.0986 15.2297C19.0669 15.1007 19.0779 14.8198 19.1314 14.453C19.1473 14.3438 19.1666 14.2285 19.189 14.1082C19.2313 13.8803 19.2822 13.6461 19.3367 13.4192C19.3693 13.2833 19.3957 13.1807 19.4109 13.1245C19.5015 12.5769 19.4861 11.7584 19.4107 11.3116C19.3382 10.8823 19.0922 10.1452 18.8186 9.43587C18.6624 9.03397 18.5238 8.71604 18.2895 8.22539C18.2484 8.1393 18.2484 8.1393 18.2147 8.06816C18.1594 7.95163 18.1384 7.9076 18.112 7.85337C18.04 7.70521 17.9653 7.55995 17.7715 7.19104C17.3646 6.41825 16.6899 6.11515 16.007 6.3206C15.4261 6.49538 14.9821 7.25921 14.9821 7.25921C14.9821 7.25921 14.5939 6.82316 14.4203 6.71421C14.1396 6.53999 13.5726 6.4179 13.2262 6.50679C12.8703 6.59906 12.4875 6.7904 12.1629 7.0224C11.879 7.22622 11.702 7.65113 11.6659 8.03558C11.6398 8.31002 11.6529 8.0279 11.4195 7.86836C11.0972 7.64901 10.5546 7.57383 10.1234 7.68109C9.75759 7.77121 9.3887 7.97954 9.08975 8.24942C8.70552 8.59734 8.79701 8.97246 8.73257 8.88332C8.51664 8.5844 8.52141 8.60855 8.37275 8.39274C7.821 7.59209 7.38029 7.06624 6.89631 6.65485C6.92414 6.6785 6.71712 6.50014 6.64384 6.43954C6.51695 6.33462 6.39627 6.24242 6.27163 6.15785C5.88746 5.89717 5.5158 5.74211 5.13825 5.73348C4.48246 5.7182 3.75304 6.2263 3.58695 6.8434C3.42216 7.45655 3.70749 8.21391 4.23128 9.0696C4.43404 9.40211 4.8644 9.98043 5.20357 10.3979C5.32203 10.5424 5.42862 10.6749 5.62506 10.9199C5.65859 10.9615 5.65859 10.9615 5.69223 11.0031C5.84198 11.188 5.96791 11.3388 6.11032 11.5023C6.09544 11.4853 6.36324 11.7905 6.42168 11.8584C6.44117 11.8811 6.44117 11.8811 6.46064 11.904C6.57122 12.0339 6.68648 12.176 6.87472 12.415C6.97807 12.5465 7.08542 12.6884 7.19657 12.8402C7.49973 13.254 7.45493 13.159 7.32585 13.1016C7.23668 13.0619 7.15385 13.0267 7.07512 12.9954C6.92878 12.9373 6.79884 12.8934 6.68173 12.8649C5.82782 12.6557 5.34557 12.6134 4.80572 12.8112C3.91953 13.1344 3.40118 14.1169 3.66596 14.9824C3.82808 15.5132 3.96089 15.7297 4.39898 16.058C4.63798 16.2343 4.98763 16.4181 5.62029 16.7197C5.659 16.7382 5.65901 16.7382 5.69767 16.7565C6.47351 17.1252 6.55865 17.1667 6.75511 17.2794C7.28658 17.5851 8.67541 18.5283 8.89819 18.6376L10.1531 19.1553Z" fill="black"/>
<path fill-rule="evenodd" clip-rule="evenodd" d="M6.04062 16.0296C6.00236 16.0114 6.00236 16.0114 5.96417 15.9932C5.38356 15.7164 5.05527 15.5438 4.8766 15.4121C4.59377 15.2001 4.54915 15.1274 4.43294 14.7469C4.29573 14.2983 4.58715 13.746 5.07962 13.5664C5.42011 13.4416 5.78494 13.4736 6.48852 13.646C6.56464 13.6645 6.66131 13.6971 6.7758 13.7426C6.84351 13.7695 6.91651 13.8005 6.99632 13.8361C7.11619 13.8894 7.52655 14.0827 7.46638 14.0548C7.55497 14.0956 7.62024 14.1288 7.69689 14.1711C7.85006 14.2577 7.93579 14.3054 8.04936 14.3648C7.99609 14.3369 8.39512 14.5544 8.46923 14.5787C8.86178 14.7073 9.14876 14.3041 8.96051 13.9728C8.92909 13.9174 8.88609 13.862 8.8064 13.7674C8.3166 13.0276 8.15619 12.7916 7.84317 12.3644C7.72689 12.2057 7.61413 12.0566 7.50463 11.9172C7.31036 11.6706 7.18906 11.5211 7.071 11.3823C7.05006 11.3578 7.05006 11.3578 7.02924 11.3335C6.96778 11.262 6.69594 10.9522 6.71413 10.973C6.57908 10.818 6.45913 10.6743 6.31502 10.4964C6.28222 10.4558 6.28222 10.4558 6.24929 10.415C6.05391 10.1713 5.94458 10.0354 5.82449 9.88889C5.50745 9.49867 5.09531 8.94484 4.91541 8.64982C4.50767 7.98372 4.27618 7.36926 4.36146 7.05196C4.42811 6.80433 4.82132 6.53043 5.11737 6.53733C5.31093 6.54176 5.54984 6.64143 5.81763 6.82314C5.91898 6.89191 6.02017 6.96921 6.12889 7.05911C6.19473 7.11356 6.39544 7.28648 6.37305 7.26745C6.7938 7.6251 7.19288 8.10127 7.708 8.84877C7.86059 9.07028 8.03743 9.31933 8.25657 9.62269C8.32159 9.71263 8.32159 9.71263 8.38648 9.80211C9.43397 11.2457 9.35534 11.1359 9.41981 11.2602C9.65499 11.7134 10.3399 11.3996 10.1503 10.9255C10.0901 10.7752 10.0246 10.6466 9.82924 10.2807C9.8016 10.229 9.8016 10.229 9.77415 10.1773C9.59495 9.83989 9.50117 9.64129 9.46774 9.51891C9.40678 9.29577 9.48132 8.9776 9.62693 8.84576C9.83159 8.66099 10.0843 8.51825 10.3144 8.46158C10.5343 8.40688 10.8418 8.44949 10.9639 8.53254C11.1113 8.63331 11.282 8.81255 11.4608 9.05038C11.6051 9.24234 11.7435 9.45615 11.8804 9.68948C11.9229 9.76208 11.9551 9.81853 12.0077 9.91218C12.0298 9.95136 12.0298 9.95136 12.0485 9.98345C12.0581 9.99947 12.0581 9.99947 12.0745 10.0241C12.0863 10.0413 12.0863 10.0413 12.1226 10.0817C12.1933 10.2117 12.1933 10.2117 12.7527 10.0054C12.8204 9.73558 12.8204 9.73557 12.7998 9.70376C12.7713 9.57669 12.7264 9.44135 12.6347 9.19051C12.5749 9.02759 12.5456 8.94741 12.5162 8.86377C12.3947 8.51756 12.34 8.28681 12.3513 8.16852C12.3651 8.02144 12.5301 7.747 12.629 7.67603C12.8776 7.49836 13.1732 7.35058 13.4248 7.28536C13.5389 7.25609 13.887 7.33106 13.9921 7.39627C14.2089 7.53233 14.6294 8.10389 14.9951 8.6956C15.004 8.74162 15.004 8.74162 15.2836 8.8997C15.8239 8.56174 15.8239 8.56174 15.7586 8.46623C15.7561 8.42226 15.7478 8.37402 15.7332 8.29988C15.7003 8.1258 15.6845 8.02311 15.6768 7.90328C15.6714 7.82038 15.6724 7.74685 15.68 7.6851C15.709 7.44549 15.9518 7.17622 16.2365 7.09056C16.5423 6.99855 16.826 7.12601 17.0572 7.56511C17.2471 7.92661 17.3189 8.06618 17.3862 8.20466C17.411 8.25576 17.4306 8.29692 17.4857 8.41282C17.5197 8.48443 17.5197 8.48443 17.5612 8.57163C17.7872 9.04486 17.9178 9.34453 18.0661 9.72596C18.319 10.3817 18.5549 11.0886 18.6152 11.4452C18.6766 11.8089 18.6903 12.5396 18.6233 12.955C18.615 12.9771 18.5867 13.0871 18.5522 13.231C18.4947 13.4705 18.4409 13.718 18.3958 13.9609C18.3716 14.091 18.3505 14.2165 18.333 14.3366C18.2653 14.8013 18.2512 15.1611 18.3148 15.4201C18.3967 15.7571 18.4513 15.9305 18.5285 16.1099C18.5506 16.1606 18.5506 16.1606 18.5726 16.2095C18.6247 16.3249 18.6452 16.3718 18.6803 16.4576C18.7172 16.5478 18.7632 16.6405 18.8173 16.7358C18.8949 16.8723 18.977 17.0702 18.977 17.0702C18.977 17.0702 18.849 17.1173 18.7138 17.1857C18.5486 17.2693 18.407 17.3299 18.3038 17.3604C18.1547 17.4042 17.5574 17.1148 17.1919 16.8417C16.6329 16.4235 15.9356 16.7897 15.8797 17.4214C15.8305 17.9938 15.6651 18.614 15.5602 18.6813C15.2194 18.9 14.6604 19.1733 13.5703 19.671C13.4661 19.7185 13.4661 19.7185 13.3619 19.766C12.9433 19.9568 12.9927 20.0193 12.9655 19.9405C12.888 19.7157 12.9043 19.757 12.781 19.554C12.5742 19.2138 12.3247 18.9749 12.0024 18.8911C11.8352 18.8469 11.6299 18.7828 11.2147 18.6478C10.7402 18.4936 10.5923 18.4466 10.4134 18.396L9.22617 17.9042C9.08906 17.836 7.73106 16.9137 7.15354 16.5816C6.92906 16.4527 6.84963 16.4141 6.04062 16.0296ZM15.2456 11.6384L16.8442 14.9864C17.0753 15.4704 17.8012 15.1238 17.5701 14.6398L15.9716 11.2918C15.7405 10.8079 15.0146 11.1545 15.2456 11.6384ZM13.2791 12.5764L14.8997 15.9305C15.133 16.4134 15.8573 16.0635 15.624 15.5806L14.0035 12.2264C13.7702 11.7435 13.0458 12.0935 13.2791 12.5764ZM13.7046 16.4786L12.1009 13.1722C11.8669 12.6897 11.1431 13.0408 11.3771 13.5233L12.9808 16.8296C13.2148 17.3122 13.9386 16.9611 13.7046 16.4786Z" fill="white"/>
</g>
<defs>
<filter id="filter0_d_1_544" x="1.54053" y="4.73315" width="20.46" height="19.1595" filterUnits="userSpaceOnUse" color-interpolation-filters="sRGB">
<feFlood flood-opacity="0" result="BackgroundImageFix"/>
<feColorMatrix in="SourceAlpha" type="matrix" values="0 0 0 0 0 0 0 0 0 0 0 0 0 0 0 0 0 0 127 0" result="hardAlpha"/>
<feOffset dy="1"/>
<feGaussianBlur stdDeviation="1"/>
<feColorMatrix type="matrix" values="0 0 0 0 0 0 0 0 0 0 0 0 0 0 0 0 0 0 0.298656 0"/>
<feBlend mode="normal" in2="BackgroundImageFix" result="effect1_dropShadow_1_544"/>
<feBlend mode="normal" in="SourceGraphic" in2="effect1_dropShadow_1_544" result="shape"/>
</filter>
</defs>
</svg>
