<svg width="149" height="145" viewBox="0 0 149 145" fill="none" xmlns="http://www.w3.org/2000/svg">
<path d="M96.85 12.9252V143.421C92.8469 143.422 88.8697 142.795 85.0715 141.565L59.6 133.3V2.29711C61.0648 2.58922 62.5103 2.96689 63.9285 3.42807L89.7799 11.816C92.0605 12.5507 94.4478 12.9228 96.85 12.918V12.9252ZM111.75 9.27137L139.032 0.426677C140.156 0.0336622 141.362 -0.0903651 142.546 0.0650594C143.73 0.220484 144.858 0.6508 145.836 1.3197C146.813 1.9886 147.611 2.87646 148.162 3.90836C148.712 4.94026 149 6.08592 149 7.24869V123.245C149 124.795 148.49 126.305 147.543 127.553C146.596 128.8 145.263 129.719 143.74 130.175L111.75 140.55V9.27137ZM44.7 2.29711V133.3L9.9681 144.573C8.84295 144.967 7.63707 145.09 6.45233 144.935C5.26758 144.779 4.13877 144.348 3.16122 143.678C2.18368 143.008 1.38611 142.12 0.835899 141.087C0.285686 140.054 -0.00101828 138.907 2.71739e-06 137.744V21.7482C-0.000307354 20.1974 0.510381 18.6874 1.45707 17.44C2.40375 16.1925 3.73654 15.2733 5.2597 14.8174L40.3716 3.42082C41.7899 2.96209 43.2353 2.58684 44.7 2.29711Z" fill="white"/>
</svg>
